<svg width="2220" height="2220" xmlns="http://www.w3.org/2000/svg" xmlns:xlink="http://www.w3.org/1999/xlink" xml:space="preserve" overflow="hidden"><defs><clipPath id="clip0"><rect x="1090" y="213" width="2220" height="2220"/></clipPath></defs><g clip-path="url(#clip0)" transform="translate(-1090 -213)"><path d="M2671.09 501.143C2675.62 505.151 2675.19 511.235 2669.79 519.395 2669.57 519.719 2669.21 520.208 2668.71 520.862 2668.21 521.516 2667.85 521.968 2667.63 522.219L2602.4 620.807C2599.89 624.609 2597.3 626.985 2594.65 627.937L2593.77 628.12 2595.92 628.637C2598.77 629.011 2601.35 627.442 2603.68 623.928L2673.16 518.919C2675.79 514.938 2676.96 511.542 2676.68 508.733 2676.4 505.925 2674.53 503.394 2671.09 501.143ZM2656.62 478.307 2726.7 524.674 2720.45 534.123C2713.05 529.453 2707.49 526.792 2703.76 526.142 2700.04 525.492 2696.85 526.933 2694.2 530.465 2692.16 533.249 2690.22 535.149 2688.38 536.164 2686.54 537.18 2685.71 537.56 2685.89 537.306L2627.59 629.928C2625.14 633.627 2623.61 636.706 2623.01 639.167 2622.4 641.628 2622.44 643.646 2623.12 645.221 2623.8 646.795 2624.92 648.334 2626.49 649.836 2628.05 651.338 2631.81 654.417 2637.77 659.076L2631.61 668.382 2561.54 622.015 2567.78 612.576C2574.78 617.096 2579.91 619.716 2583.17 620.436 2586.43 621.156 2589.15 620.685 2591.35 619.022 2593.54 617.36 2596.38 613.888 2599.88 608.606L2658.35 520.224C2661.74 515.11 2663.95 511.286 2665 508.75 2666.05 506.213 2666.33 504.157 2665.83 502.58 2665.33 501.003 2664.15 499.321 2662.29 497.534 2660.43 495.747 2656.48 492.449 2650.45 487.637Z" fill-rule="evenodd"/><text fill="#000000" fill-opacity="0" font-family="Arial,Arial_MSFontService,sans-serif" font-size="190.076" x="2561.54" y="644.623">I</text><path d="M2746.52 722.427 2745.54 722.99C2744.14 723.588 2742.5 723.918 2740.61 723.982 2738.73 724.046 2737.1 723.716 2735.72 722.993L2734.3 721.945 2745.29 735.045C2743.27 732.735 2742.71 730.13 2743.63 727.23 2744.08 725.78 2744.76 724.486 2745.65 723.347ZM2849.67 627.58 2849.81 629.288C2849.65 632.859 2848.63 638.602 2846.74 646.518L2815.17 825.575C2815.52 825.184 2816.44 824.289 2817.93 822.889 2819.43 821.488 2820.42 820.362 2820.91 819.509 2821.39 818.656 2821.87 817.375 2822.33 815.664 2822.78 813.953 2823.37 810.876 2824.09 806.433L2851 644.082C2851.69 640.898 2851.94 637.577 2851.75 634.119 2851.66 632.39 2851.2 630.618 2850.35 628.803ZM2930.15 722.734 2930.29 723.743C2930.31 724.175 2930.31 724.625 2930.28 725.094 2930.04 728.843 2928.6 731.821 2925.96 734.029 2931.39 730.481 2935.8 730.305 2939.19 733.502ZM2841.27 599.047 2875.09 639.368 2845.92 798.697 2906.84 745.425C2911.58 741.448 2915.16 737.656 2917.57 734.05 2919.98 730.444 2921.25 726.637 2921.38 722.631 2921.6 720.113 2921 716.937 2919.56 713.103 2918.13 709.27 2915.77 705.458 2912.49 701.667L2921.21 694.352 2965.21 746.819 2956.55 754.087C2952.21 749.218 2948.12 746.046 2944.28 744.571 2940.44 743.095 2936.38 742.795 2932.09 743.669 2927.8 744.543 2922.93 747.267 2917.47 751.84L2814.57 841.088 2807.47 832.618 2840.47 651.464 2770.47 712.451C2766.15 716.275 2762.75 719.717 2760.27 722.777 2757.79 725.837 2756.11 728.93 2755.24 732.057 2754.36 735.184 2754.44 738.603 2755.48 742.314 2756.51 746.024 2759.12 750.892 2763.31 756.917L2754.78 764.07 2711.08 711.964 2719.64 704.784C2726.03 711.315 2731.69 714.861 2736.63 715.423 2741.57 715.984 2746.38 714.89 2751.07 712.139 2755.75 709.388 2761.15 705.245 2767.26 699.711L2840.01 636.538C2840.78 630.654 2840.8 625.437 2840.08 620.887 2839.37 616.336 2837.68 612.477 2835.02 609.309L2832.55 606.362Z" fill-rule="evenodd"/><text fill="#000000" fill-opacity="0" font-family="Arial,Arial_MSFontService,sans-serif" font-size="242.042" x="2711.08" y="810.833">N</text><path d="M3131.73 1168.98 3131.59 1169.18C3131.16 1169.7 3130.59 1170.19 3129.87 1170.66 3126.99 1172.55 3122.8 1173.94 3117.31 1174.85L3001.28 1194.12C2995.12 1195.15 2990.57 1195.11 2987.64 1194.02 2986.91 1193.75 2986.28 1193.42 2985.76 1193.05L2984.81 1192.08 2984.81 1192.08C2985.54 1194.22 2986.7 1195.72 2988.31 1196.59 2990.45 1197.74 2993.86 1197.93 2998.54 1197.16L3114.67 1177.87C3121.48 1176.74 3126.19 1175.36 3128.83 1173.74 3130.15 1172.92 3131.04 1171.77 3131.52 1170.27ZM3113.53 1055.28 3112.72 1056.57C3112.27 1057.09 3111.68 1057.59 3110.97 1058.08 3108.11 1060.02 3103.45 1061.52 3096.98 1062.6L2985.17 1081.17C2978 1082.36 2972.71 1082.33 2969.27 1081.09 2967.99 1080.63 2967 1080.1 2966.31 1079.52L2966.22 1079.43 2967.38 1081.35C2968.33 1082.49 2969.6 1083.32 2971.2 1083.84 2974.4 1084.87 2979.4 1084.83 2986.19 1083.7L3091.21 1066.26C3098.42 1065.06 3103.53 1063.96 3106.53 1062.95 3109.53 1061.94 3111.53 1060.48 3112.55 1058.57 3113.05 1057.61 3113.38 1056.54 3113.52 1055.36ZM3119.93 1024.43 3133.73 1107.55 3122.53 1109.41C3120.95 1100.45 3119.26 1094.65 3117.46 1092.02 3115.66 1089.39 3113.22 1087.96 3110.12 1087.71 3107.03 1087.46 3101.79 1087.94 3094.42 1089.17L3053.97 1095.89 3066.98 1174.25 3113.75 1166.48C3119.1 1165.6 3122.76 1164.43 3124.73 1162.97 3126.7 1161.52 3127.87 1159.33 3128.22 1156.39 3128.58 1153.45 3128.37 1147.66 3127.59 1139.03L3138.66 1137.2 3152.46 1220.32 3141.31 1222.17C3139.52 1213.1 3137.87 1207.29 3136.36 1204.73 3134.85 1202.17 3132.56 1200.7 3129.47 1200.32 3126.39 1199.94 3120.93 1200.4 3113.1 1201.7L3011.01 1218.65C3004.79 1219.69 3000.35 1220.85 2997.68 1222.16 2995.01 1223.46 2993.27 1225.66 2992.46 1228.77 2991.64 1231.88 2992.06 1237.85 2993.7 1246.68L2982.47 1248.55 2968.67 1165.43 2979.75 1163.59C2981.69 1172.5 2983.4 1178.26 2984.88 1180.87 2986.35 1183.47 2988.42 1185.01 2991.07 1185.49 2993.72 1185.96 2998.33 1185.65 3004.89 1184.56L3053.6 1176.47 3040.59 1098.11 2994.46 1105.77C2988.72 1106.72 2984.57 1107.61 2982 1108.43 2979.43 1109.26 2977.55 1110.38 2976.37 1111.81 2975.18 1113.25 2974.46 1115.35 2974.21 1118.14 2973.96 1120.93 2974.13 1126.2 2974.73 1133.95L2963.74 1135.78 2949.94 1052.66 2961.07 1050.81C2962.42 1057.78 2963.59 1062.58 2964.58 1065.23 2965.57 1067.88 2966.83 1069.79 2968.38 1070.98 2969.93 1072.17 2972.08 1072.84 2974.85 1073 2977.62 1073.15 2981.55 1072.81 2986.65 1071.96L3096.46 1053.72C3103.07 1052.62 3107.11 1050.44 3108.58 1047.16 3110.04 1043.88 3110.11 1036.92 3108.79 1026.28Z" fill-rule="evenodd"/><text fill="#000000" fill-opacity="0" font-family="Arial,Arial_MSFontService,sans-serif" font-size="224.118" x="2949.94" y="1220.53">H</text><path d="M3126.91 1388.6 3125.48 1387.09C3123.13 1384.72 3120.62 1382.43 3117.95 1380.23 3107.25 1371.42 3094.36 1365.57 3079.29 1362.66 3066.75 1360.24 3054.92 1360.16 3043.79 1362.41 3032.67 1364.66 3022.65 1369.18 3013.74 1375.98 3011.51 1377.68 3009.38 1379.46 3007.34 1381.32L3007.19 1381.47 3010.85 1378.57C3015.63 1375.09 3020.98 1372.12 3026.88 1369.66 3042.63 1363.1 3060.63 1361.78 3080.88 1365.68 3091.03 1367.64 3099.91 1370.6 3107.54 1374.58 3113.26 1377.56 3118.6 1381.2 3123.57 1385.49ZM3123.61 1490.77 3121.33 1492.45C3119.3 1493.83 3117.08 1495.11 3114.66 1496.3 3104.99 1501.03 3093.99 1503.86 3081.66 1504.79 3069.32 1505.72 3056.27 1504.85 3042.48 1502.2 3029.22 1499.64 3018.05 1495.6 3008.97 1490.09L3006.5 1488.51 3006.95 1488.91C3011.17 1492.38 3015.97 1495.37 3021.36 1497.88 3028.54 1501.24 3036.85 1503.82 3046.29 1505.64 3059.9 1508.27 3072.75 1508.8 3084.84 1507.24 3096.92 1505.68 3107.33 1502.07 3116.05 1496.42 3118.23 1495.01 3120.25 1493.56 3122.1 1492.06ZM3140.7 1453.27C3141.99 1446.55 3141.73 1439.96 3139.93 1433.49 3138.12 1427.03 3134.87 1421.18 3130.18 1415.95 3125.49 1410.73 3119.45 1406.17 3112.06 1402.28 3104.67 1398.38 3096.11 1395.5 3086.38 1393.62 3073.02 1391.05 3060.52 1390.06 3048.87 1390.66 3037.22 1391.26 3026.94 1393.32 3018.02 1396.84 3009.1 1400.35 3001.96 1405.08 2996.59 1411.02 2991.22 1416.95 2987.78 1423.82 2986.28 1431.61 2984.99 1438.27 2985.19 1444.83 2986.88 1451.28 2988.56 1457.72 2991.82 1463.77 2996.67 1469.41 3001.52 1475.05 3008 1479.96 3016.1 1484.16 3024.2 1488.35 3033.94 1491.55 3045.32 1493.74 3057.79 1496.14 3069.62 1496.9 3080.81 1496.02 3092 1495.13 3101.75 1492.82 3110.06 1489.08 3118.38 1485.35 3125.18 1480.41 3130.48 1474.28 3135.77 1468.14 3139.18 1461.14 3140.7 1453.27ZM3150.99 1460.64C3148.41 1474.02 3143.77 1485.84 3137.06 1496.09 3130.35 1506.35 3122.2 1514.59 3112.62 1520.84 3103.04 1527.08 3092.59 1531.27 3081.26 1533.41 3069.93 1535.54 3058.47 1535.49 3046.89 1533.26 3034.41 1530.85 3023.19 1526.3 3013.22 1519.6 3003.25 1512.9 2995.07 1504.56 2988.68 1494.6 2982.28 1484.64 2977.96 1473.56 2975.72 1461.36 2973.48 1449.17 2973.62 1436.52 2976.14 1423.43 2978.52 1411.08 2982.91 1399.99 2989.3 1390.16 2995.69 1380.33 3003.57 1372.3 3012.94 1366.07 3022.3 1359.83 3032.84 1355.65 3044.57 1353.53 3056.29 1351.41 3068.5 1351.58 3081.2 1354.02 3088.39 1355.41 3095.09 1357.4 3101.28 1360 3107.47 1362.6 3113.21 1365.78 3118.53 1369.53 3123.84 1373.28 3128.66 1377.65 3133.01 1382.63 3137.35 1387.62 3141.02 1392.89 3144.03 1398.46 3147.28 1404.52 3149.69 1410.82 3151.26 1417.37 3152.83 1423.91 3153.56 1430.77 3153.45 1437.96 3153.34 1445.15 3152.52 1452.71 3150.99 1460.64Z" fill-rule="evenodd"/><text fill="#000000" fill-opacity="0" font-family="Arial,Arial_MSFontService,sans-serif" font-size="182.914" x="2974.14" y="1512.11">O</text><path d="M3051.57 1717.04 3051.08 1713.36C3050.15 1708.12 3048.55 1702.91 3046.28 1697.71 3044.01 1692.52 3041.18 1687.58 3037.8 1682.89 3034.43 1678.19 3030.46 1673.8 3025.9 1669.7 3021.34 1665.6 3016.53 1662.09 3011.48 1659.16 2999.41 1652.17 2986.9 1648.2 2973.93 1647.26 2960.96 1646.32 2948.32 1648.79 2935.99 1654.69 2934.45 1655.43 2932.94 1656.2 2931.46 1657.02L2930.04 1657.86 2932.39 1656.72C2939.42 1653.67 2946.61 1651.58 2953.97 1650.45 2963.79 1648.93 2973.4 1649.1 2982.83 1650.93 2992.25 1652.77 3001.24 1656.17 3009.8 1661.12 3016.89 1665.23 3023.63 1670.68 3029.99 1677.45 3036.36 1684.22 3041.34 1691.44 3044.94 1699.1 3046.98 1703.48 3048.66 1707.68 3049.99 1711.69ZM3009.17 1809.69C3008.62 1807.31 3009.49 1804.17 3011.75 1800.26L3012.1 1799.68 3011.97 1799.83C3010.07 1801.62 3007.63 1802.85 3004.64 1803.54 3002.65 1803.99 3000.9 1804.13 2999.4 1803.96L2997.5 1803.51ZM3048.33 1773.08C3046.04 1777.04 3043.64 1780.51 3041.14 1783.49 3038.64 1786.46 3035.45 1789.87 3031.58 1793.71 3027.7 1797.55 3025.1 1800.19 3023.76 1801.63 3022.42 1803.06 3021.18 1804.78 3020.03 1806.77 3017.24 1811.58 3016.73 1816.87 3018.5 1822.65L3011.82 1834.18 2962.13 1805.39 2967.87 1795.49C2977.3 1796.22 2985.55 1796.21 2992.62 1795.46 2999.7 1794.7 3006.03 1793.26 3011.62 1791.13 3017.21 1789 3022.08 1786.2 3026.23 1782.74 3030.38 1779.28 3033.89 1775.06 3036.77 1770.09 3040.66 1763.37 3042.69 1756.38 3042.87 1749.11 3043.05 1741.84 3041.44 1734.59 3038.03 1727.34 3034.63 1720.1 3029.45 1712.98 3022.49 1705.97 3015.53 1698.96 3007.28 1692.69 2997.73 1687.16 2984.47 1679.48 2971.49 1674.89 2958.79 1673.39 2946.09 1671.88 2934.7 1673.39 2924.62 1677.9 2914.55 1682.41 2906.64 1689.61 2900.92 1699.49 2897.36 1705.63 2894.94 1712.13 2893.65 1718.99 2892.36 1725.84 2892.27 1733.11 2893.38 1740.77 2894.5 1748.43 2896.92 1756.86 2900.65 1766.05L2890.7 1772.11C2882.79 1756.59 2879.15 1741.57 2879.8 1727.07 2880.44 1712.56 2884.95 1698.06 2893.34 1683.58 2899.88 1672.29 2907.86 1663.04 2917.27 1655.85 2926.68 1648.65 2936.95 1643.65 2948.06 1640.84 2959.18 1638.03 2970.47 1637.49 2981.95 1639.22 2993.42 1640.94 3004.37 1644.83 3014.81 1650.87 3026.08 1657.4 3035.38 1665.45 3042.7 1675.02 3050.02 1684.6 3055.13 1694.96 3058.01 1706.11 3060.89 1717.26 3061.52 1728.59 3059.88 1740.11 3058.24 1751.63 3054.39 1762.62 3048.33 1773.08Z" fill-rule="evenodd"/><text fill="#000000" fill-opacity="0" font-family="Arial,Arial_MSFontService,sans-serif" font-size="195.945" x="2879.72" y="1809.68">C</text><path d="M2712.48 1962.54 2703.91 1948.79 2704.3 1950.15C2704.4 1951.19 2704.1 1952.22 2703.41 1953.25 2702.02 1955.32 2700.1 1957.02 2697.65 1958.37 2699.98 1957.61 2702.02 1957.54 2703.77 1958.18 2705.51 1958.81 2707.9 1959.92 2710.94 1961.5ZM2753.69 2030.66 2753.58 2030.58C2750.99 2028.77 2748.16 2027.26 2745.1 2026.04 2741.02 2024.41 2737.02 2023.52 2733.11 2023.35 2727.81 2023.14 2722.52 2023.93 2717.25 2025.73 2711.97 2027.53 2704.23 2030.55 2694.04 2034.79 2683.84 2039.02 2676.54 2041.52 2672.13 2042.3 2663.57 2044.09 2655.76 2043.59 2648.67 2040.79 2643.36 2038.7 2638.83 2035.43 2635.07 2031.01L2633.81 2029.4 2634.62 2030.87C2639.23 2038.26 2644.73 2042.89 2651.12 2044.75 2657.51 2046.62 2664.25 2046.8 2671.34 2045.3 2678.43 2043.8 2687.73 2040.75 2699.24 2036.14 2710.75 2031.52 2715.87 2029.66 2714.61 2030.54 2727.92 2025.91 2739.21 2025.21 2748.47 2028.42 2749.63 2028.83 2750.75 2029.27 2751.85 2029.75ZM2712.44 2115.99C2712.85 2114.71 2714.28 2113.3 2716.76 2111.76L2717.52 2111.33 2715.21 2110.93C2713.46 2110.46 2711.64 2109.9 2709.76 2109.27L2704.37 2107.27ZM2756.98 2106.81C2752.56 2109.57 2746.78 2112.31 2739.65 2115.02 2732.52 2117.74 2727.53 2119.99 2724.69 2121.76 2721.37 2123.83 2718.59 2126.66 2716.35 2130.26L2706.29 2136.53 2673.42 2093.83 2683.86 2087.33C2698.75 2095.95 2711.6 2101.21 2722.41 2103.12 2733.21 2105.03 2743.22 2103.12 2752.42 2097.39 2756.86 2094.62 2760.35 2091 2762.9 2086.53 2765.45 2082.06 2766.75 2077.27 2766.8 2072.18 2766.84 2067.08 2765.5 2062.34 2762.77 2057.97 2758.98 2051.88 2753.99 2048.51 2747.79 2047.85 2741.6 2047.2 2733.5 2048.73 2723.52 2052.46 2713.54 2056.19 2704.59 2059.62 2696.69 2062.77 2688.79 2065.91 2681.46 2067.77 2674.69 2068.33 2665.35 2069.41 2656.29 2067.84 2647.53 2063.61 2638.76 2059.38 2631.64 2052.88 2626.18 2044.1 2620.95 2035.72 2618.1 2026.6 2617.62 2016.75 2617.14 2006.91 2619.22 1997.48 2623.86 1988.47 2628.51 1979.46 2635.36 1972.14 2644.42 1966.5 2649.58 1963.28 2653.69 1961.26 2656.73 1960.42 2659.78 1959.59 2664.95 1958.37 2672.24 1956.78 2679.54 1955.19 2684.65 1953.48 2687.58 1951.66 2692.22 1948.77 2694.85 1944.3 2695.47 1938.27L2704.44 1932.68 2738.87 1987.97 2728.54 1994.41C2717.45 1985.46 2707.2 1979.06 2697.79 1975.2 2688.38 1971.34 2679.73 1969.56 2671.83 1969.88 2663.93 1970.2 2656.8 1972.34 2650.44 1976.3 2642.57 1981.2 2637.38 1987.82 2634.85 1996.15 2632.33 2004.49 2633.42 2012.44 2638.13 2020.01 2642.56 2027.12 2647.83 2031.51 2653.92 2033.16 2660.01 2034.82 2666.23 2034.82 2672.58 2033.16 2678.93 2031.51 2687.04 2028.62 2696.93 2024.51 2706.81 2020.4 2714.13 2017.78 2718.89 2016.67 2726.32 2014.96 2733.36 2014.61 2740.02 2015.63 2746.67 2016.65 2752.74 2019.06 2758.22 2022.87 2763.7 2026.68 2768.3 2031.56 2772.01 2037.52 2775.51 2043.14 2777.9 2049.17 2779.17 2055.61 2780.44 2062.05 2780.52 2068.41 2779.42 2074.71 2778.31 2081 2775.89 2086.94 2772.13 2092.52 2768.38 2098.09 2763.33 2102.86 2756.98 2106.81Z" fill-rule="evenodd"/><text fill="#000000" fill-opacity="0" font-family="Arial,Arial_MSFontService,sans-serif" font-size="203.847" x="2617.55" y="2111.05">S</text><path d="M2538.76 2207.7C2532.79 2208.66 2528.36 2204.48 2525.46 2195.13 2525.34 2194.76 2525.19 2194.17 2525 2193.37 2524.82 2192.56 2524.69 2192 2524.64 2191.67L2489.63 2078.76C2488.28 2074.41 2488.08 2070.9 2489.02 2068.25L2489.43 2067.45 2487.67 2068.79C2485.58 2070.75 2485.16 2073.75 2486.41 2077.77L2523.69 2198.04C2525.11 2202.6 2526.99 2205.66 2529.35 2207.22 2531.7 2208.77 2534.84 2208.93 2538.76 2207.7ZM2565.6 2210.95 2485.34 2235.84 2481.98 2225.01C2490.28 2222.25 2495.86 2219.63 2498.72 2217.16 2501.59 2214.68 2502.49 2211.3 2501.43 2207.02 2500.57 2203.68 2500.33 2200.97 2500.71 2198.9 2501.09 2196.83 2501.32 2195.95 2501.4 2196.25L2466.63 2092.48C2465.31 2088.24 2463.89 2085.11 2462.37 2083.08 2460.85 2081.06 2459.27 2079.81 2457.62 2079.34 2455.97 2078.87 2454.06 2078.76 2451.91 2079.02 2449.76 2079.28 2445 2080.24 2437.62 2081.91L2434.31 2071.25 2514.57 2046.36 2517.92 2057.18C2509.99 2059.73 2504.72 2062.04 2502.09 2064.11 2499.47 2066.18 2498.11 2068.58 2498.01 2071.33 2497.91 2074.08 2498.8 2078.48 2500.67 2084.53L2532.06 2185.75C2533.87 2191.61 2535.43 2195.75 2536.73 2198.17 2538.03 2200.58 2539.45 2202.1 2540.98 2202.71 2542.52 2203.32 2544.57 2203.48 2547.13 2203.17 2549.69 2202.86 2554.74 2201.89 2562.29 2200.27Z" fill-rule="evenodd"/><text fill="#000000" fill-opacity="0" font-family="Arial,Arial_MSFontService,sans-serif" font-size="189.472" x="2434.31" y="2212.15">I</text><path d="M2216.21 2171.59 2214.81 2169.83C2213.03 2167.03 2212.1 2163.02 2212.01 2157.79L2211.75 2142.1C2211.67 2136.88 2212.95 2131.7 2215.6 2126.54 2216.27 2125.25 2217.01 2124.12 2217.84 2123.13L2217.91 2123.05 2217.09 2123.61C2214.04 2125.9 2211.87 2128.88 2210.59 2132.54 2209.3 2136.21 2208.71 2141.04 2208.8 2147.02 2208.93 2154.59 2209.29 2159.94 2209.88 2163.07 2210.48 2166.21 2211.78 2168.56 2213.79 2170.13 2214.29 2170.52 2214.83 2170.87 2215.39 2171.2ZM2304.36 2261.48 2305.18 2260.91C2306.67 2259.79 2308.14 2258.58 2309.58 2257.3 2315.36 2252.19 2320.53 2246 2325.09 2238.73 2329.66 2231.47 2333.11 2223.78 2335.45 2215.67 2337.79 2207.56 2338.89 2199.21 2338.75 2190.64 2338.57 2179.76 2336.38 2169.12 2332.18 2158.72 2327.98 2148.31 2322 2139.12 2314.24 2131.15 2310.38 2127.85 2306.14 2124.9 2301.54 2122.31 2300.39 2121.67 2299.25 2121.06 2298.12 2120.48L2297.69 2120.28 2301.52 2123.3C2304.12 2125.54 2306.6 2128.05 2308.96 2130.83 2318.02 2139.51 2324.74 2149.07 2329.12 2159.52 2333.51 2169.96 2335.79 2180.43 2335.97 2190.92 2336.17 2203.07 2333.67 2215.32 2328.48 2227.68 2323.28 2240.04 2316.34 2250.18 2307.65 2258.11ZM2207.79 2266.79C2209.53 2265.33 2211.72 2264.59 2214.37 2264.54 2216.34 2264.51 2218.08 2264.59 2219.59 2264.77L2221.06 2265.04 2219.6 2264.36C2214.4 2261.56 2209.91 2256.78 2206.11 2250.03ZM2264.99 2281.89C2256.74 2282.02 2247.27 2281.04 2236.59 2278.95 2225.91 2276.85 2219.28 2275.83 2216.7 2275.87 2210.15 2275.98 2205.49 2278 2202.7 2281.94L2190.41 2282.14 2187.32 2225.05 2197.82 2224.88C2201.96 2233 2206.32 2239.9 2210.91 2245.56 2215.49 2251.22 2220.16 2255.81 2224.9 2259.32 2229.64 2262.84 2234.61 2265.42 2239.8 2267.09 2244.98 2268.75 2250.31 2269.53 2255.78 2269.44 2266.09 2269.27 2275.26 2265.91 2283.3 2259.36 2291.35 2252.81 2297.56 2243.69 2301.93 2232.02 2306.31 2220.34 2308.37 2206.92 2308.12 2191.74 2307.88 2176.63 2305.14 2163.29 2299.93 2151.71 2294.71 2140.13 2287.84 2131.23 2279.31 2125.02 2270.78 2118.8 2261.62 2115.78 2251.82 2115.94 2246.07 2116.03 2240.77 2117.23 2235.9 2119.52 2231.04 2121.82 2227.53 2124.53 2225.39 2127.66 2223.26 2130.69 2221.92 2133.79 2221.39 2136.95 2220.85 2140.11 2220.63 2144.16 2220.71 2149.09 2220.84 2156.85 2221.27 2162.09 2222.02 2164.79 2222.77 2167.5 2224.51 2169.39 2227.23 2170.47 2229.96 2171.54 2235.79 2172.37 2244.73 2172.95L2244.92 2184.39 2162.93 2185.73 2162.74 2174.31C2171.84 2173.42 2177.67 2172.44 2180.23 2171.36 2182.78 2170.28 2184.47 2168.39 2185.29 2165.69 2186.11 2162.98 2186.46 2157.87 2186.33 2150.36L2185.87 2122.43C2193.42 2118.38 2200.99 2115 2208.59 2112.29 2216.18 2109.57 2223.91 2107.43 2231.77 2105.85 2239.62 2104.27 2247.39 2103.42 2255.05 2103.29 2269.25 2103.06 2282.12 2105.12 2293.65 2109.49 2305.19 2113.85 2314.92 2120.07 2322.87 2128.16 2330.81 2136.25 2336.87 2145.63 2341.03 2156.32 2345.2 2167.01 2347.38 2178.24 2347.58 2190.02 2347.77 2201.57 2345.99 2212.85 2342.24 2223.86 2338.49 2234.87 2332.99 2244.67 2325.74 2253.28 2318.48 2261.89 2309.66 2268.76 2299.25 2273.89 2288.85 2279.02 2277.43 2281.68 2264.99 2281.89Z" fill-rule="evenodd"/><text fill="#000000" fill-opacity="0" font-family="Arial,Arial_MSFontService,sans-serif" font-size="178.871" x="2162.74" y="2259.79">G</text><path d="M2044.09 2119.94 2044.64 2118.95C2045.53 2117.72 2046.76 2116.59 2048.34 2115.55 2049.93 2114.52 2051.49 2113.96 2053.04 2113.87L2054.8 2114.03 2038.62 2108.51C2041.54 2109.44 2043.37 2111.38 2044.09 2114.33 2044.45 2115.81 2044.54 2117.27 2044.36 2118.71ZM2004.97 2254.49 2003.96 2253.11C2002.25 2249.97 2000.15 2244.52 1997.67 2236.77L1931.96 2067.24C1931.86 2067.76 1931.54 2069 1930.98 2070.97 1930.43 2072.95 1930.17 2074.42 1930.19 2075.4 1930.22 2076.39 1930.48 2077.73 1930.97 2079.43 1931.46 2081.13 1932.55 2084.07 1934.24 2088.24L1995.28 2241.07C1996.34 2244.14 1997.85 2247.11 1999.8 2249.98 2000.77 2251.41 2002.09 2252.69 2003.75 2253.8ZM1886.84 2214.76 1886.2 2213.97C1885.96 2213.61 1885.73 2213.23 1885.51 2212.81 1883.77 2209.48 1883.46 2206.19 1884.58 2202.93 1881.77 2208.78 1878.09 2211.21 1873.54 2210.23ZM2026.92 2274.56 1977.11 2257.57 1919.57 2106.16 1895.03 2183.28C1893.04 2189.14 1891.94 2194.23 1891.75 2198.57 1891.55 2202.9 1892.44 2206.81 1894.4 2210.31 1895.51 2212.58 1897.68 2214.98 1900.89 2217.52 1904.1 2220.06 1908.09 2222.09 1912.86 2223.64L1909.19 2234.41 1844.38 2212.31 1848.03 2201.61C1854.26 2203.53 1859.4 2204.12 1863.45 2203.4 1867.5 2202.67 1871.13 2200.82 1874.35 2197.85 1877.56 2194.89 1880.32 2190.03 1882.62 2183.3L1924.44 2053.66 1934.9 2057.23 2000.47 2229.3 2028.77 2140.88C2030.49 2135.37 2031.62 2130.66 2032.15 2126.76 2032.69 2122.86 2032.52 2119.34 2031.65 2116.22 2030.78 2113.09 2028.94 2110.21 2026.14 2107.57 2023.33 2104.93 2018.58 2102.11 2011.88 2099.13L2015.47 2088.59 2079.84 2110.54 2076.23 2121.11C2067.38 2118.84 2060.7 2118.74 2056.18 2120.81 2051.67 2122.89 2048.12 2126.32 2045.54 2131.1 2042.95 2135.88 2040.48 2142.22 2038.12 2150.11L2008.59 2241.83C2010.98 2247.26 2013.66 2251.74 2016.63 2255.26 2019.6 2258.78 2023.04 2261.21 2026.96 2262.54L2030.6 2263.78Z" fill-rule="evenodd"/><text fill="#000000" fill-opacity="0" font-family="Arial,Arial_MSFontService,sans-serif" font-size="220.892" x="1844.38" y="2246.94">N</text><path d="M1710.63 2112.72 1712.64 2112.16C1715.83 2111.18 1719.02 2110.02 1722.21 2108.67 1734.98 2103.28 1746.15 2094.59 1755.72 2082.59 1763.69 2072.6 1769.25 2062.16 1772.42 2051.26 1775.6 2040.37 1776.24 2029.39 1774.36 2018.34 1773.89 2015.58 1773.3 2012.87 1772.6 2010.2L1772.54 2010 1773.41 2014.59C1774.27 2020.44 1774.41 2026.55 1773.85 2032.92 1772.35 2049.92 1765.17 2066.47 1752.31 2082.6 1745.86 2090.68 1739.11 2097.17 1732.05 2102.07 1726.75 2105.76 1721.05 2108.8 1714.94 2111.21ZM1621.68 2062.36 1621.25 2059.56C1620.97 2057.13 1620.86 2054.56 1620.94 2051.87 1621.24 2041.11 1623.84 2030.05 1628.74 2018.7 1633.64 2007.34 1640.47 1996.18 1649.22 1985.21 1657.65 1974.65 1666.41 1966.63 1675.5 1961.14L1678.05 1959.69 1677.49 1959.9C1672.46 1962.03 1667.58 1964.89 1662.85 1968.5 1656.55 1973.3 1650.4 1979.46 1644.4 1986.98 1635.76 1997.82 1629.32 2008.95 1625.1 2020.38 1620.87 2031.81 1619.23 2042.7 1620.18 2053.05 1620.42 2055.63 1620.77 2058.1 1621.24 2060.43ZM1646.96 2094.91C1652.31 2099.18 1658.27 2102.01 1664.83 2103.41 1671.4 2104.81 1678.09 2104.64 1684.89 2102.92 1691.7 2101.19 1698.54 2097.96 1705.42 2093.22 1712.3 2088.48 1718.83 2082.24 1725.01 2074.49 1733.49 2063.85 1740.17 2053.24 1745.05 2042.64 1749.92 2032.05 1752.87 2021.98 1753.9 2012.45 1754.92 2002.92 1754.05 1994.4 1751.29 1986.89 1748.52 1979.38 1744.04 1973.15 1737.84 1968.2 1732.53 1963.97 1726.63 1961.1 1720.14 1959.6 1713.65 1958.09 1706.78 1958.18 1699.53 1959.86 1692.29 1961.53 1684.93 1964.98 1677.45 1970.21 1669.97 1975.44 1662.62 1982.59 1655.4 1991.64 1647.48 2001.58 1641.31 2011.7 1636.9 2022.02 1632.49 2032.34 1630.01 2042.05 1629.46 2051.15 1628.91 2060.25 1630.12 2068.56 1633.1 2076.1 1636.07 2083.64 1640.69 2089.91 1646.96 2094.91ZM1635.65 2100.6C1624.99 2092.1 1616.69 2082.51 1610.72 2071.8 1604.75 2061.1 1601.23 2050.06 1600.15 2038.67 1599.07 2027.29 1600.21 2016.08 1603.58 2005.06 1606.95 1994.03 1612.31 1983.91 1619.67 1974.69 1627.59 1964.75 1636.83 1956.93 1647.4 1951.21 1657.96 1945.49 1669.14 1942.11 1680.93 1941.08 1692.73 1940.04 1704.54 1941.36 1716.39 1945.03 1728.23 1948.71 1739.36 1954.7 1749.79 1963.02 1759.62 1970.86 1767.4 1979.89 1773.14 1990.12 1778.88 2000.34 1782.34 2011.05 1783.51 2022.24 1784.69 2033.43 1783.49 2044.7 1779.92 2056.07 1776.36 2067.44 1770.55 2078.18 1762.48 2088.29 1757.91 2094.02 1753.04 2099.02 1747.87 2103.3 1742.69 2107.57 1737.21 2111.19 1731.42 2114.15 1725.63 2117.11 1719.52 2119.36 1713.09 2120.89 1706.66 2122.43 1700.28 2123.23 1693.95 2123.3 1687.08 2123.37 1680.38 2122.58 1673.85 2120.93 1667.33 2119.28 1660.91 2116.74 1654.6 2113.31 1648.28 2109.88 1641.97 2105.64 1635.65 2100.6Z" fill-rule="evenodd"/><text fill="#000000" fill-opacity="0" font-family="Arial,Arial_MSFontService,sans-serif" font-size="182.572" x="1599.75" y="2100.48">O</text><path d="M1362.76 1772.01 1364.25 1770.08C1366.27 1767.63 1368.99 1764.8 1372.41 1761.56L1480.67 1657.82C1477.63 1658.53 1475.46 1659.13 1474.17 1659.65 1472.76 1660.2 1470.17 1662.46 1466.4 1666.42L1374.23 1756.23C1370.32 1760.03 1367.49 1763.05 1365.74 1765.29 1364.43 1766.97 1363.54 1768.69 1363.06 1770.45ZM1321.09 1670.19C1319.81 1663.97 1322.94 1659.29 1330.5 1656.16 1322.91 1658.26 1317.51 1657.22 1314.31 1653.06ZM1360.08 1799.67 1331.95 1728.59 1342.54 1724.4 1344.22 1728.64C1345.97 1733.06 1347.97 1736.05 1350.21 1737.61 1352.46 1739.17 1355.04 1740.26 1357.95 1740.89 1356.83 1743.11 1357.55 1742.56 1360.09 1739.24 1362.63 1735.92 1365.36 1733.32 1368.3 1731.44L1444.95 1657.38 1361.59 1658.72C1351.17 1658.6 1342.97 1659.72 1336.98 1662.1 1331.62 1664.21 1328.05 1667.15 1326.27 1670.9 1324.49 1674.66 1324.86 1679.71 1327.37 1686.07L1316.79 1690.26 1294.82 1634.75 1305.29 1630.61C1308.2 1636.99 1313.52 1641.38 1321.24 1643.78 1328.96 1646.18 1339.91 1647.38 1354.08 1647.39L1488.63 1647.66 1492.28 1656.88 1379.85 1766.89C1372.91 1773.42 1368.98 1777.95 1368.07 1780.47 1367.15 1783 1367.99 1788.02 1370.57 1795.52Z" fill-rule="evenodd"/><text fill="#000000" fill-opacity="0" font-family="Arial,Arial_MSFontService,sans-serif" font-size="169.058" x="1294.82" y="1778.53">V</text><path d="M1265.49 1478.58C1265.73 1472.53 1270.72 1469.02 1280.45 1468.04 1280.84 1468 1281.44 1467.97 1282.27 1467.94 1283.09 1467.92 1283.67 1467.91 1284 1467.92L1401.62 1456.04C1406.15 1455.59 1409.63 1456.08 1412.04 1457.53L1412.74 1458.1 1411.78 1456.11C1410.27 1453.67 1407.42 1452.66 1403.23 1453.08L1277.95 1465.73C1273.2 1466.21 1269.83 1467.45 1267.83 1469.45 1265.84 1471.45 1265.06 1474.49 1265.49 1478.58ZM1256.97 1504.24 1248.53 1420.63 1259.8 1419.49C1260.86 1428.17 1262.32 1434.16 1264.18 1437.46 1266.03 1440.76 1269.16 1442.31 1273.57 1442.13 1277.02 1441.95 1279.72 1442.25 1281.67 1443.03 1283.62 1443.82 1284.44 1444.22 1284.13 1444.23L1392.74 1430.77C1397.16 1430.33 1400.51 1429.56 1402.8 1428.47 1405.09 1427.38 1406.62 1426.08 1407.41 1424.55 1408.2 1423.03 1408.68 1421.19 1408.86 1419.03 1409.03 1416.87 1409.03 1412 1408.87 1404.44L1419.97 1403.32 1428.41 1486.92 1417.15 1488.06C1416.22 1479.78 1415.01 1474.15 1413.5 1471.17 1412 1468.19 1409.91 1466.38 1407.23 1465.73 1404.56 1465.09 1400.07 1465.08 1393.77 1465.72L1288.33 1476.37C1282.23 1476.98 1277.86 1477.69 1275.24 1478.48 1272.61 1479.27 1270.84 1480.36 1269.94 1481.75 1269.03 1483.13 1268.48 1485.11 1268.27 1487.68 1268.06 1490.25 1268.01 1495.39 1268.1 1503.11Z" fill-rule="evenodd"/><text fill="#000000" fill-opacity="0" font-family="Arial,Arial_MSFontService,sans-serif" font-size="100.916" x="1248.53" y="1491.62">I</text><path d="M1389.09 1280.22 1390.14 1280.63C1391.49 1281.33 1392.79 1282.39 1394.03 1283.81 1395.28 1285.23 1396.05 1286.71 1396.36 1288.23L1396.45 1289.99 1399.63 1273.19C1399.13 1276.22 1397.46 1278.3 1394.64 1279.43 1393.23 1279.99 1391.8 1280.29 1390.35 1280.32ZM1250.37 1260.43 1251.6 1259.24C1254.46 1257.1 1259.56 1254.26 1266.88 1250.71L1425.47 1161.79C1424.95 1161.76 1423.67 1161.62 1421.64 1161.35 1419.61 1161.07 1418.11 1161.02 1417.14 1161.18 1416.17 1161.35 1414.88 1161.79 1413.27 1162.52 1411.65 1163.25 1408.9 1164.74 1405 1167L1262.3 1248.95C1259.4 1250.44 1256.67 1252.35 1254.11 1254.68 1252.83 1255.84 1251.75 1257.33 1250.88 1259.13ZM1273.07 1137.89 1273.76 1137.15C1274.08 1136.85 1274.43 1136.57 1274.81 1136.3 1277.87 1134.11 1281.08 1133.34 1284.47 1133.98 1278.28 1132.03 1275.35 1128.73 1275.68 1124.08ZM1233.6 1285 1243.4 1233.29 1385.2 1155 1305.39 1141.57C1299.31 1140.41 1294.11 1140.05 1289.79 1140.47 1285.48 1140.89 1281.73 1142.31 1278.54 1144.74 1276.45 1146.17 1274.38 1148.65 1272.32 1152.18 1270.26 1155.72 1268.8 1159.96 1267.95 1164.9L1256.76 1162.78 1269.52 1095.5 1280.63 1097.61C1279.6 1104.05 1279.74 1109.22 1281.03 1113.13 1282.32 1117.03 1284.66 1120.37 1288.05 1123.14 1291.44 1125.91 1296.63 1127.95 1303.63 1129.28L1437.86 1152.42 1435.8 1163.29 1274.68 1252.43 1366.2 1268C1371.9 1268.93 1376.72 1269.38 1380.66 1269.36 1384.59 1269.34 1388.05 1268.68 1391.02 1267.38 1394 1266.08 1396.59 1263.85 1398.81 1260.7 1401.03 1257.55 1403.14 1252.45 1405.16 1245.4L1416.1 1247.47 1403.43 1314.29 1392.45 1312.21C1393.46 1303.12 1392.62 1296.49 1389.93 1292.32 1387.24 1288.14 1383.34 1285.11 1378.25 1283.22 1373.15 1281.33 1366.53 1279.78 1358.38 1278.56L1263.41 1262.24C1258.38 1265.37 1254.32 1268.65 1251.25 1272.09 1248.19 1275.53 1246.27 1279.27 1245.5 1283.34L1244.78 1287.12Z" fill-rule="evenodd"/><text fill="#000000" fill-opacity="0" font-family="Arial,Arial_MSFontService,sans-serif" font-size="218.785" x="1233.6" y="1286.94">N</text><path d="M1346.73 932.706 1347.24 936.377C1348.19 941.613 1349.81 946.822 1352.1 952.006 1354.4 957.189 1357.25 962.12 1360.65 966.797 1364.04 971.474 1368.03 975.853 1372.61 979.933 1377.19 984.014 1382.01 987.505 1387.07 990.408 1399.17 997.346 1411.7 1001.26 1424.67 1002.15 1437.64 1003.04 1450.28 1000.51 1462.58 994.557 1464.12 993.813 1465.63 993.029 1467.1 992.204L1468.51 991.361 1466.17 992.507C1459.15 995.588 1451.97 997.711 1444.61 998.876 1434.81 1000.43 1425.19 1000.31 1415.76 998.512 1406.33 996.716 1397.32 993.357 1388.74 988.438 1381.63 984.358 1374.88 978.945 1368.48 972.201 1362.09 965.457 1357.07 958.26 1353.44 950.61 1351.38 946.24 1349.68 942.051 1348.33 938.045ZM1388.74 839.871C1389.29 842.245 1388.44 845.394 1386.19 849.316L1385.85 849.892 1385.98 849.738C1387.87 847.945 1390.31 846.7 1393.29 846.005 1395.28 845.541 1397.03 845.391 1398.53 845.556L1400.43 845.997ZM1349.73 876.649C1352.01 872.676 1354.39 869.196 1356.88 866.21 1359.37 863.223 1362.54 859.803 1366.4 855.948 1370.26 852.093 1372.85 849.443 1374.18 847.998 1375.51 846.553 1376.75 844.835 1377.89 842.842 1380.66 838.02 1381.14 832.722 1379.35 826.949L1385.98 815.394 1435.8 843.967 1430.1 853.896C1420.66 853.201 1412.41 853.247 1405.34 854.034 1398.27 854.82 1391.95 856.291 1386.37 858.444 1380.79 860.598 1375.93 863.415 1371.79 866.894 1367.66 870.374 1364.16 874.606 1361.3 879.59 1357.44 886.322 1355.44 893.322 1355.29 900.592 1355.15 907.861 1356.79 915.11 1360.23 922.339 1363.66 929.568 1368.87 936.671 1375.86 943.651 1382.85 950.63 1391.13 956.862 1400.7 962.348 1413.99 969.974 1426.99 974.511 1439.7 975.959 1452.4 977.406 1463.79 975.853 1473.84 971.3 1483.9 966.747 1491.77 959.515 1497.46 949.603 1500.99 943.451 1503.38 936.942 1504.64 930.079 1505.9 923.215 1505.96 915.954 1504.82 908.296 1503.67 900.638 1501.21 892.222 1497.44 883.047L1507.37 876.94C1515.34 892.428 1519.04 907.428 1518.46 921.941 1517.88 936.453 1513.43 950.967 1505.1 965.484 1498.61 976.806 1490.67 986.084 1481.29 993.319 1471.91 1000.55 1461.67 1005.6 1450.57 1008.45 1439.46 1011.31 1428.17 1011.9 1416.69 1010.22 1405.21 1008.55 1394.24 1004.71 1383.78 998.71 1372.48 992.231 1363.15 984.22 1355.78 974.678 1348.42 965.137 1343.27 954.797 1340.34 943.659 1337.41 932.522 1336.74 921.19 1338.33 909.664 1339.91 898.139 1343.72 887.133 1349.73 876.649Z" fill-rule="evenodd"/><text fill="#000000" fill-opacity="0" font-family="Arial,Arial_MSFontService,sans-serif" font-size="195.76" x="1337.49" y="986.684">C</text><path d="M1670.22 708.169C1671.91 712.92 1672.16 717.564 1670.96 722.103 1669.75 726.641 1667.1 731.228 1663 735.865L1675.24 724.899ZM1598.53 676.798C1601.66 680.777 1600.73 685.69 1595.76 691.537 1598.17 689.106 1601.03 687.643 1604.33 687.147 1605.15 687.022 1605.9 687 1606.59 687.079L1608.14 687.538ZM1499.89 683.893 1500.04 683.901C1500.69 683.992 1501.4 684.206 1502.17 684.541 1505.26 685.881 1508.84 688.818 1512.9 693.351L1589.45 778.845C1593.54 783.415 1596.04 787.334 1596.93 790.602 1597.16 791.419 1597.28 792.163 1597.31 792.833L1597.17 793.952 1597.83 792.741C1598.39 791.293 1598.5 789.781 1598.17 788.207 1597.51 785.057 1594.81 780.843 1590.09 775.564L1513.46 689.981C1509.46 685.516 1506.19 683.246 1503.66 683.173 1503.03 683.155 1502.39 683.208 1501.75 683.331ZM1564.69 623.151 1567.6 621.737C1568.81 621.288 1570.09 620.935 1571.45 620.678 1576.88 619.653 1581.7 619.625 1585.91 620.595L1571.81 616.774ZM1467.33 695.045 1574.97 598.664 1614.76 620.367 1605.6 628.571C1597.84 627.247 1590.03 627.025 1582.16 627.905 1574.29 628.784 1566.47 630.849 1558.68 634.1 1550.9 637.351 1543.75 641.9 1537.22 647.747 1532.1 652.326 1528.81 656.168 1527.35 659.273 1525.89 662.378 1525.56 665.12 1526.37 667.501 1527.17 669.881 1528.98 672.645 1531.8 675.792L1564.7 712.537 1580.58 698.321C1594.89 685.503 1595.78 671.912 1583.23 657.548L1593.07 648.74 1638.27 699.215 1629.27 707.271C1621.48 700.125 1614.77 696.421 1609.13 696.16 1603.49 695.899 1597.5 698.606 1591.17 704.28L1572.37 721.108 1605.58 758.196C1609.37 762.425 1612.45 765.334 1614.84 766.923 1617.23 768.511 1619.51 769.173 1621.67 768.907 1623.83 768.642 1626.45 767.378 1629.52 765.116 1632.58 762.854 1636.84 759.286 1642.28 754.411 1648.58 748.77 1653.36 742.796 1656.6 736.49 1659.84 730.183 1662.01 723.151 1663.1 715.393 1664.18 707.635 1664.55 697.799 1664.21 685.886L1674.01 677.108 1694.31 723.104 1582.27 823.421 1574.74 815.008C1580.84 809.291 1584.81 804.975 1586.63 802.06 1588.45 799.144 1589.15 796.503 1588.73 794.136 1588.31 791.77 1586.72 789.051 1583.97 785.98L1505.68 698.54C1502.28 694.748 1499.47 692.471 1497.23 691.709 1494.99 690.947 1492.48 691.266 1489.72 692.668 1486.95 694.07 1481.99 697.66 1474.84 703.439Z" fill-rule="evenodd"/><text fill="#000000" fill-opacity="0" font-family="Arial,Arial_MSFontService,sans-serif" font-size="224.757" x="1467.33" y="795.326">E</text><path d="M1773.13 623.594 1779.88 638.323 1779.67 636.925C1779.71 635.885 1780.13 634.897 1780.95 633.962 1782.59 632.092 1784.71 630.643 1787.32 629.614 1784.9 630.075 1782.87 629.88 1781.22 629.03 1779.57 628.18 1777.34 626.777 1774.53 624.821ZM1740.9 550.79 1741.01 550.894C1743.35 553.015 1745.96 554.874 1748.84 556.471 1752.68 558.599 1756.53 559.996 1760.39 560.661 1765.62 561.543 1770.97 561.427 1776.43 560.311 1781.89 559.195 1789.95 557.185 1800.6 554.279 1811.25 551.373 1818.81 549.816 1823.28 549.609 1832 548.916 1839.69 550.406 1846.36 554.078 1851.36 556.833 1855.44 560.645 1858.61 565.514L1859.66 567.271 1859.03 565.71C1855.4 557.791 1850.54 552.501 1844.44 549.842 1838.33 547.182 1831.67 546.145 1824.45 546.731 1817.23 547.317 1807.62 549.166 1795.61 552.279 1783.61 555.392 1778.29 556.592 1779.65 555.88 1765.86 558.775 1754.58 558.041 1745.8 553.677 1744.7 553.132 1743.64 552.549 1742.62 551.93ZM1792.65 471.396C1792.09 472.611 1790.49 473.826 1787.84 475.039L1787.02 475.376 1789.27 476.066C1790.94 476.753 1792.68 477.532 1794.47 478.405L1799.56 481.072ZM1747.31 474.841C1752.05 472.67 1758.13 470.688 1765.55 468.897 1772.97 467.105 1778.2 465.512 1781.24 464.116 1784.8 462.489 1787.91 460.03 1790.59 456.741L1801.37 451.801 1828.55 498.328 1817.37 503.453C1803.69 493.013 1791.61 486.161 1781.14 482.895 1770.66 479.63 1760.49 480.255 1750.64 484.772 1745.88 486.95 1741.96 490.096 1738.86 494.208 1735.76 498.32 1733.87 502.901 1733.18 507.951 1732.49 513.001 1733.21 517.87 1735.36 522.556 1738.35 529.077 1742.87 533.055 1748.94 534.492 1755 535.929 1763.22 535.432 1773.6 533.003 1783.98 530.573 1793.28 528.301 1801.52 526.186 1809.75 524.072 1817.26 523.162 1824.05 523.458 1833.45 523.576 1842.23 526.288 1850.39 531.594 1858.55 536.901 1864.79 544.254 1869.09 553.653 1873.21 562.637 1874.88 572.042 1874.11 581.869 1873.34 591.697 1870.07 600.783 1864.32 609.13 1858.57 617.476 1850.84 623.872 1841.14 628.316 1835.61 630.85 1831.29 632.337 1828.16 632.778 1825.03 633.219 1819.75 633.765 1812.31 634.417 1804.88 635.068 1799.59 636.113 1796.45 637.552 1791.48 639.831 1788.3 643.925 1786.92 649.834L1777.32 654.233 1750.18 595.021 1761.25 589.95C1771.11 600.233 1780.47 607.886 1789.31 612.91 1798.15 617.933 1806.51 620.789 1814.38 621.479 1822.26 622.168 1829.6 620.951 1836.42 617.829 1844.84 613.967 1850.84 608.062 1854.4 600.113 1857.96 592.164 1857.89 584.137 1854.17 576.033 1850.68 568.416 1846.02 563.399 1840.19 560.983 1834.35 558.567 1828.18 557.777 1821.68 558.614 1815.17 559.451 1806.76 561.282 1796.43 564.105 1786.1 566.928 1778.51 568.59 1773.64 569.09 1766.06 569.843 1759.03 569.293 1752.56 567.441 1746.09 565.589 1740.38 562.424 1735.42 557.948 1730.47 553.471 1726.53 548.044 1723.61 541.667 1720.85 535.647 1719.25 529.362 1718.8 522.814 1718.36 516.266 1719.09 509.941 1720.98 503.839 1722.87 497.737 1726.04 492.157 1730.47 487.1 1734.9 482.042 1740.51 477.956 1747.31 474.841Z" fill-rule="evenodd"/><text fill="#000000" fill-opacity="0" font-family="Arial,Arial_MSFontService,sans-serif" font-size="202.432" x="1718.68" y="628.929">S</text><path d="M1145.5 1327.5C1145.5 744.287 1618.29 271.5 2201.5 271.5 2784.71 271.5 3257.5 744.287 3257.5 1327.5 3257.5 1910.71 2784.71 2383.5 2201.5 2383.5 1618.29 2383.5 1145.5 1910.71 1145.5 1327.5ZM1528.45 1327.5C1528.45 1699.22 1829.78 2000.55 2201.5 2000.55 2573.22 2000.55 2874.55 1699.22 2874.55 1327.5 2874.55 955.784 2573.22 654.448 2201.5 654.448 1829.78 654.448 1528.45 955.784 1528.45 1327.5Z" stroke="#000000" stroke-width="22.9167" stroke-miterlimit="8" fill="none" fill-rule="evenodd"/><path d="M2129.5 460.5C2129.5 429.02 2161.96 403.5 2202 403.5 2242.04 403.5 2274.5 429.02 2274.5 460.5 2274.5 491.98 2242.04 517.5 2202 517.5 2161.96 517.5 2129.5 491.98 2129.5 460.5Z" stroke="#000000" stroke-width="12.6042" stroke-miterlimit="8" fill="none" fill-rule="evenodd"/><path d="M2179.5 460.5C2179.5 450.007 2189.8 441.5 2202.5 441.5 2215.2 441.5 2225.5 450.007 2225.5 460.5 2225.5 470.993 2215.2 479.5 2202.5 479.5 2189.8 479.5 2179.5 470.993 2179.5 460.5Z" stroke="#000000" stroke-width="12.6042" stroke-miterlimit="8" fill="none" fill-rule="evenodd"/><path d="M2240.88 416.555C2251.43 407.449 2263.6 404.257 2268.06 409.424 2272.52 414.592 2267.58 426.163 2257.03 435.268 2246.48 444.374 2234.31 447.566 2229.85 442.399 2225.39 437.231 2230.33 425.66 2240.88 416.555Z" stroke="#000000" stroke-width="12.6042" stroke-miterlimit="8" fill="#FFFFFF" fill-rule="evenodd"/><path d="M2268.81 482.842C2278.42 494.695 2281.03 508.509 2274.63 513.697 2268.24 518.886 2255.26 513.483 2245.64 501.63 2236.03 489.777 2233.42 475.963 2239.82 470.774 2246.21 465.586 2259.19 470.989 2268.81 482.842Z" stroke="#000000" stroke-width="12.6042" stroke-miterlimit="8" fill="#FFFFFF" fill-rule="evenodd"/><path d="M2169.78 410.624C2173.99 398.781 2182.81 391.103 2189.47 393.474 2196.14 395.845 2198.12 407.368 2193.91 419.211 2189.7 431.054 2180.88 438.732 2174.21 436.361 2167.55 433.989 2165.56 422.466 2169.78 410.624Z" stroke="#000000" stroke-width="12.6042" stroke-miterlimit="8" fill="#FFFFFF" fill-rule="evenodd"/><path d="M2132.42 470.282C2118.69 461.191 2110.51 449.373 2114.14 443.886 2117.78 438.399 2131.85 441.32 2145.58 450.411 2159.31 459.502 2167.49 471.32 2163.85 476.807 2160.22 482.294 2146.14 479.373 2132.42 470.282Z" stroke="#000000" stroke-width="12.6042" stroke-miterlimit="8" fill="#FFFFFF" fill-rule="evenodd"/><path d="M2203.99 506.028C2203.5 516.447 2195.89 524.555 2187 524.136 2178.11 523.717 2171.3 514.931 2171.79 504.511 2172.28 494.091 2179.89 485.984 2188.78 486.402 2197.67 486.821 2204.48 495.608 2203.99 506.028Z" stroke="#000000" stroke-width="12.6042" stroke-miterlimit="8" fill="#FFFFFF" fill-rule="evenodd"/><path d="M1194.5 1328C1194.5 772.125 1645.13 321.5 2201 321.5 2756.87 321.5 3207.5 772.125 3207.5 1328 3207.5 1883.87 2756.87 2334.5 2201 2334.5 1645.13 2334.5 1194.5 1883.87 1194.5 1328ZM1460.76 1328C1460.76 1736.82 1792.18 2068.24 2201 2068.24 2609.82 2068.24 2941.24 1736.82 2941.24 1328 2941.24 919.177 2609.82 587.76 2201 587.76 1792.18 587.76 1460.76 919.177 1460.76 1328Z" stroke="#000000" stroke-width="17.1875" stroke-miterlimit="8" fill="none" fill-rule="evenodd"/><path d="M2005 1860 2133.57 1684 2272.43 1684 2401 1860Z" stroke="#000000" stroke-width="16.0417" stroke-miterlimit="8" fill="#FFFFFF" fill-rule="evenodd"/><rect x="1821" y="960" width="759" height="130" stroke="#000000" stroke-width="16.0417" stroke-miterlimit="8" fill="#FFFFFF"/><rect x="2137" y="733" width="133" height="953" stroke="#000000" stroke-width="16.0417" stroke-miterlimit="8" fill="#FFFFFF"/><rect x="1986" y="1861" width="429" height="51.9999" stroke="#000000" stroke-width="16.0417" stroke-miterlimit="8" fill="#FFFFFF"/><rect x="2103" y="967" width="203" height="115" fill="#FFFFFF"/><path d="M23.6409 39.0935C63.2307-3.74606 138.69-12.7725 192.184 18.9323 202.042 24.7754 210.729 31.7896 217.944 39.7324L184.677 59.113C155.626 33.9207 103.343 30.237 67.8992 50.8853 63.8497 53.2443 60.1235 55.8705 56.7704 58.7287Z" stroke="#000000" stroke-width="16.0417" stroke-miterlimit="8" fill="#FFFFFF" fill-rule="evenodd" transform="matrix(1 0 0 -1 2083 1717)"/><path d="M0 112 49.6139 0 396 0 346.386 112Z" stroke="#000000" stroke-width="10.3125" stroke-miterlimit="8" fill="#F2F2F2" fill-rule="evenodd" transform="matrix(-1 0 0 1 2415 799)"/><path d="M2346.28 837.267C2341.85 838.022 2337.15 838.052 2332.98 839.533 2331.5 840.057 2331.17 841.778 2330.32 842.933 2325.83 849.051 2327.03 846.821 2325 852 2325.44 853.511 2325.83 855.036 2326.33 856.533 2326.72 857.682 2326.55 859.2 2327.66 859.933 2330.79 862.008 2334.82 862.849 2338.3 864.467 2339.7 865.119 2340.82 866.197 2342.29 866.733 2346.32 868.206 2357.18 868.773 2359.58 869 2364.9 868.622 2370.38 869.039 2375.54 867.867 2380.86 866.657 2380.73 859.254 2380.86 856.533 2381.18 849.361 2380.86 842.178 2380.86 835" stroke="#000000" stroke-width="10.3125" stroke-miterlimit="8" fill="none" fill-rule="evenodd"/><path d="M2132.22 875.452C2132.52 876.405 2132.19 877.375 2131.23 878.364 2130.27 879.352 2129.03 879.737 2127.53 879.518 2130.45 879.537 2133.38 879.557 2136.3 879.577 2134.96 879.589 2133.91 879.164 2133.15 878.303 2132.39 877.441 2132.08 876.491 2132.22 875.452ZM2218.9 854.977C2219.91 854.651 2221.27 855.109 2222.98 856.352 2224.7 857.594 2226.87 859.3 2229.5 861.469 2232.13 863.638 2234.76 865.834 2237.41 868.058 2239.8 870.027 2241.95 871.472 2243.85 872.393 2245.75 873.314 2247.42 873.855 2248.85 874.015 2250.28 874.174 2251.43 874.225 2252.3 874.165 2250.46 874.571 2248.51 874.181 2246.44 872.997 2244.38 871.813 2242.13 870.262 2239.71 868.344 2237.29 866.426 2234.84 864.435 2232.35 862.372 2229.86 860.308 2227.28 858.371 2224.6 856.56 2224.22 856.209 2223.8 855.86 2223.36 855.514 2222.91 855.167 2222.36 854.88 2221.71 854.653 2220.77 854.761 2219.84 854.869 2218.9 854.977ZM2191.68 831.648C2191.34 831.932 2191.03 832.269 2190.7 832.579 2190.15 833.03 2189.61 833.483 2189.06 833.93 2188.22 835.212 2187.86 837.042 2187.99 839.423 2189 852.78 2190.02 866.138 2191.03 879.496 2191.45 879.469 2191.88 879.441 2192.3 879.414 2192.64 879.298 2192.97 879.234 2193.27 879.127 2194.15 878.701 2194.76 878.178 2195.11 877.557 2195.56 876.73 2195.74 875.392 2195.64 873.542 2194.97 861.184 2194.3 848.825 2193.63 836.467 2193.52 834.456 2193.23 833.042 2192.75 832.223 2192.39 832.031 2192.04 831.84 2191.68 831.648ZM2127.71 830.141C2129.37 831.608 2131.04 833.075 2132.71 834.542 2149.96 849.667 2167.22 864.791 2184.47 879.915 2184.97 879.884 2185.46 879.852 2185.96 879.82 2185.86 879.442 2185.77 879.064 2185.67 878.685 2185.5 878.376 2185.19 877.978 2184.72 877.489 2184.25 877.001 2183.34 876.183 2182 875.035 2165.66 860.999 2149.33 846.964 2133 832.928 2132.08 832.063 2131 831.278 2129.75 830.573 2129.07 830.429 2128.39 830.285 2127.71 830.141ZM2196.12 829.771C2195.74 829.878 2195.36 829.986 2194.98 830.094 2195.44 830.232 2195.89 830.371 2196.35 830.509 2196.95 831.594 2197.32 833.326 2197.44 835.708 2198.15 848.767 2198.86 861.826 2199.57 874.885 2199.72 877.702 2198.61 879.277 2196.22 879.61 2199.31 879.194 2200.79 877.949 2200.68 875.875 2199.96 862.524 2199.23 849.174 2198.51 835.823 2198.4 833.865 2198.19 832.444 2197.89 831.56 2197.58 830.676 2197 830.081 2196.14 829.773 2196.13 829.772 2196.12 829.772 2196.12 829.771ZM2227.8 825.861C2230.69 825.812 2233.01 826.787 2234.76 828.786 2236.5 830.785 2237.47 833.552 2237.66 837.089 2236.88 839.928 2236.1 842.768 2235.33 845.607 2235.54 845.492 2235.75 845.377 2235.95 845.262 2238.14 842.953 2239.14 840.019 2238.94 836.46 2238.76 833.006 2237.59 830.396 2235.45 828.631 2233.3 826.865 2230.75 825.942 2227.8 825.861ZM2216.38 826.942C2213.92 827.226 2212.14 827.662 2211.02 828.25 2209.91 828.837 2209.19 829.628 2208.87 830.622 2208.55 831.617 2208.45 833.123 2208.56 835.141 2208.87 840.839 2209.18 846.537 2209.48 852.235 2211.9 851.956 2214.31 851.677 2216.72 851.398 2219.44 851.084 2222.09 850.443 2224.66 849.475 2227.23 848.507 2229.15 847.453 2230.41 846.313 2232.89 844.146 2234.02 841.087 2233.8 837.135 2233.55 832.475 2231.33 829.295 2227.15 827.594 2225.68 827 2224.15 826.67 2222.55 826.604 2220.96 826.538 2218.9 826.651 2216.38 826.942ZM2178.25 829.854C2179.62 829.314 2180.92 829.481 2182.15 830.355 2183.39 831.23 2184.03 832.243 2184.09 833.395 2185.07 832.379 2186.04 831.362 2187.02 830.345 2185.29 830.19 2183.57 830.034 2181.84 829.879 2180.64 829.87 2179.45 829.862 2178.25 829.854ZM2123.42 829.486C2124.42 829.615 2125.43 829.743 2126.43 829.872 2125.83 829.746 2125.24 829.62 2124.64 829.494 2124.23 829.491 2123.82 829.489 2123.42 829.486ZM2279.7 819.51C2282.31 819.492 2283.71 821.12 2283.89 824.392 2283.89 824.522 2283.89 824.726 2283.88 825.005 2283.87 825.283 2283.86 825.478 2283.85 825.59 2284.56 838.77 2285.28 851.95 2285.99 865.13 2286.08 866.655 2285.77 867.837 2285.08 868.676 2284.39 869.515 2283.4 869.849 2282.12 869.677 2283.41 869.486 2284.61 869.116 2285.71 868.565 2286.8 868.015 2287.31 867.035 2287.23 865.626 2286.47 851.587 2285.71 837.549 2284.95 823.51 2284.86 821.913 2284.41 820.794 2283.6 820.153 2282.78 819.511 2281.49 819.297 2279.7 819.51ZM2085.53 829.123C2088.16 829.422 2089.56 831.209 2089.74 834.482 2089.75 834.612 2089.75 834.814 2089.74 835.089 2089.73 835.364 2089.72 835.557 2089.7 835.666 2090.42 848.846 2091.13 862.027 2091.85 875.207 2091.93 876.732 2091.63 877.869 2090.93 878.619 2090.24 879.368 2089.24 879.579 2087.94 879.252 2089.25 879.22 2090.45 878.998 2091.56 878.584 2092.66 878.171 2093.17 877.26 2093.1 875.85 2092.34 861.812 2091.57 847.773 2090.81 833.735 2090.73 832.138 2090.27 830.971 2089.45 830.235 2088.63 829.499 2087.33 829.128 2085.53 829.123ZM2268.81 817.048C2280.95 815.644 2293.09 814.24 2305.23 812.836 2305.3 814.099 2305.37 815.363 2305.44 816.626 2301.65 817.126 2299.02 817.716 2297.54 818.396 2296.07 819.076 2295.31 820.16 2295.28 821.647 2295.27 822.809 2295.07 823.725 2294.68 824.398 2294.3 825.07 2294.1 825.353 2294.1 825.248 2295.12 837.406 2296.14 849.564 2297.16 861.722 2297.24 863.205 2297.49 864.325 2297.9 865.08 2298.32 865.836 2298.84 866.334 2299.48 866.576 2300.12 866.817 2300.91 866.95 2301.84 866.973 2302.77 866.997 2304.88 866.919 2308.15 866.741 2308.22 867.985 2308.29 869.229 2308.36 870.473 2296.22 871.877 2284.08 873.281 2271.94 874.685 2271.87 873.423 2271.8 872.161 2271.73 870.899 2275.34 870.45 2277.81 869.947 2279.14 869.391 2280.47 868.834 2281.31 868.099 2281.65 867.185 2282 866.271 2282.12 864.755 2282 862.636 2281.36 850.82 2280.72 839.005 2280.08 827.189 2279.97 825.138 2279.77 823.675 2279.5 822.8 2279.22 821.926 2278.79 821.347 2278.22 821.063 2277.64 820.78 2276.8 820.624 2275.69 820.596 2274.58 820.568 2272.36 820.633 2269.01 820.79 2268.95 819.543 2268.88 818.295 2268.81 817.048ZM2114.83 825.622C2122.48 825.674 2130.14 825.725 2137.79 825.777 2153.57 839.785 2169.35 853.794 2185.13 867.802 2184.4 858.779 2183.67 849.757 2182.94 840.734 2182.83 838.664 2182.47 836.93 2181.86 835.534 2181.26 834.139 2180.28 832.988 2178.93 832.084 2178.12 831.481 2176.86 830.945 2175.15 830.478 2173.44 830.01 2171.49 829.782 2169.31 829.794 2169.24 828.525 2169.17 827.256 2169.1 825.987 2173.19 826.014 2177.28 826.042 2181.36 826.069 2184.3 826.089 2187.23 826.109 2190.17 826.129 2193.08 825.791 2196 825.468 2198.92 825.13 2206.97 824.199 2215.03 823.267 2223.09 822.336 2228.36 821.726 2233.03 821.903 2237.11 822.865 2241.19 823.828 2244.32 825.389 2246.5 827.549 2248.69 829.708 2249.85 832.173 2250 834.942 2250.1 836.747 2249.72 838.573 2248.87 840.419 2248.01 842.264 2246.74 843.985 2245.05 845.581 2243.36 847.177 2241.3 848.612 2238.86 849.885 2236.42 851.158 2233.89 852.065 2231.27 852.607 2233.48 853.444 2236.45 855.361 2240.17 858.359 2241.94 859.703 2243.71 861.047 2245.48 862.391 2245.72 862.564 2246.06 862.806 2246.49 863.115 2246.92 863.425 2247.51 863.842 2248.25 864.365 2249.81 865.581 2251.21 866.639 2252.45 867.539 2253.69 868.439 2254.88 869.213 2256.01 869.862 2257.14 870.511 2258.2 871.001 2259.18 871.331 2260.16 871.661 2261.49 871.913 2263.16 872.086 2263.23 873.283 2263.29 874.48 2263.36 875.677 2259.77 876.092 2256.18 876.508 2252.58 876.923 2250.2 877.198 2247.95 877.056 2245.84 876.495 2243.72 875.935 2241.7 875.056 2239.78 873.858 2237.85 872.661 2235.66 871.052 2233.2 869.033 2230.67 866.955 2228.15 864.878 2225.62 862.8 2222.11 859.848 2219.57 857.868 2218 856.862 2216.44 855.856 2215.21 855.405 2214.3 855.509 2212.77 855.687 2211.23 855.865 2209.69 856.043 2209.98 861.381 2210.27 866.72 2210.56 872.058 2210.65 873.625 2210.93 874.773 2211.43 875.504 2211.92 876.235 2213.02 876.695 2214.71 876.883 2215.5 876.959 2216.59 876.98 2217.99 876.947 2219.39 876.913 2220.8 876.799 2222.21 876.605 2222.27 877.874 2222.34 879.143 2222.41 880.412 2212.71 881.534 2203.01 882.644 2193.31 883.766 2192.66 883.761 2192.01 883.757 2191.35 883.752 2191.39 884.163 2191.42 884.573 2191.45 884.984 2189.84 884.973 2188.23 884.962 2186.62 884.951 2186.16 884.538 2185.69 884.125 2185.22 883.711 2184.98 883.71 2184.74 883.708 2184.49 883.706 2184.48 883.48 2184.47 883.254 2184.45 883.029 2167.22 867.756 2149.98 852.483 2132.75 837.211 2133.56 847.562 2134.38 857.913 2135.19 868.264 2135.37 870.194 2135.65 871.806 2136.05 873.102 2136.45 874.397 2137.07 875.496 2137.92 876.397 2138.77 877.299 2139.97 878.021 2141.53 878.564 2143.09 879.107 2145.47 879.5 2148.67 879.744 2148.74 880.985 2148.8 882.226 2148.87 883.467 2138.98 883.401 2129.09 883.334 2119.2 883.268 2119.13 882.022 2119.06 880.776 2119 879.531 2122.96 879.323 2125.7 878.652 2127.21 877.518 2128.71 876.384 2129.62 874.922 2129.92 873.132 2130.21 871.342 2130.22 869.07 2129.93 866.314 2129.11 855.571 2128.29 844.828 2127.46 834.085 2125.63 832.613 2123.83 831.474 2122.07 830.668 2120.3 829.862 2118.52 829.453 2116.71 829.441 2116.15 829.437 2115.59 829.433 2115.03 829.43 2114.97 828.161 2114.9 826.891 2114.83 825.622ZM2074.57 825.352C2086.79 825.434 2099.01 825.516 2111.23 825.598 2111.3 826.861 2111.37 828.125 2111.44 829.388 2107.62 829.424 2104.98 829.69 2103.49 830.187 2102.01 830.683 2101.25 831.668 2101.21 833.141 2101.2 834.294 2101 835.18 2100.61 835.801 2100.22 836.421 2100.02 836.679 2100.02 836.574 2101.05 848.776 2102.07 860.978 2103.09 873.18 2103.17 874.663 2103.42 875.805 2103.84 876.606 2104.25 877.407 2104.78 877.966 2105.43 878.284 2106.07 878.601 2106.86 878.828 2107.8 878.965 2108.74 879.102 2110.85 879.281 2114.16 879.502 2114.22 880.747 2114.29 881.991 2114.36 883.235 2102.14 883.153 2089.92 883.071 2077.7 882.989 2077.63 881.727 2077.56 880.465 2077.49 879.203 2081.12 879.196 2083.61 878.997 2084.95 878.606 2086.29 878.214 2087.13 877.586 2087.48 876.72 2087.83 875.854 2087.95 874.362 2087.83 872.244 2087.19 860.428 2086.55 848.612 2085.91 836.797 2085.8 834.746 2085.6 833.269 2085.32 832.366 2085.05 831.464 2084.62 830.837 2084.04 830.485 2083.46 830.134 2082.61 829.876 2081.5 829.714 2080.38 829.551 2078.14 829.344 2074.77 829.094 2074.7 827.847 2074.64 826.599 2074.57 825.352Z" fill-rule="evenodd"/><text fill="#000000" fill-opacity="0" font-family="Arial,Arial_MSFontService,sans-serif" font-size="72.1472" x="2074.57" y="875.965">INRI</text><path d="M2364.77 935.092 2333 868" stroke="#000000" stroke-width="10.3125" stroke-miterlimit="8" fill="none" fill-rule="evenodd"/><path d="M2070.96 806C2075.55 804.666 2080.41 804.615 2084.74 802 2086.26 801.075 2086.61 798.038 2087.49 796 2092.14 785.204 2090.9 789.139 2093 780 2092.54 777.334 2092.14 774.643 2091.62 772 2091.22 769.973 2091.39 767.294 2090.25 766 2087 762.339 2082.83 760.855 2079.23 758 2077.77 756.849 2076.61 754.947 2075.09 754 2070.92 751.402 2059.68 750.401 2057.19 750 2051.68 750.667 2046 749.931 2040.66 752 2035.15 754.134 2035.28 767.198 2035.15 772 2034.81 784.657 2035.15 797.333 2035.15 810" stroke="#000000" stroke-width="10.3125" stroke-miterlimit="8" fill="#F2F2F2" fill-rule="evenodd"/><path d="M2377.66 904.667C2373.15 905.556 2368.37 905.59 2364.12 907.333 2362.62 907.95 2362.28 909.974 2361.41 911.333 2356.85 918.53 2358.06 915.907 2356 922 2356.45 923.778 2356.84 925.571 2357.35 927.333 2357.75 928.685 2357.58 930.47 2358.71 931.333 2361.89 933.774 2365.99 934.763 2369.54 936.667 2370.96 937.434 2372.1 938.702 2373.6 939.333 2377.7 941.065 2388.75 941.732 2391.2 942 2396.61 941.556 2402.19 942.046 2407.44 940.667 2412.86 939.244 2412.73 930.534 2412.85 927.333 2413.18 918.895 2412.85 910.444 2412.85 902" stroke="#000000" stroke-width="10.3125" stroke-miterlimit="8" fill="#F2F2F2" fill-rule="evenodd"/><path d="M2060.5 1860.5 2060.5 1909.77" stroke="#000000" stroke-width="6.875" stroke-miterlimit="8" fill="none" fill-rule="evenodd"/><path d="M2088.5 1860.5 2088.5 1909.77" stroke="#000000" stroke-width="6.875" stroke-miterlimit="8" fill="none" fill-rule="evenodd"/><path d="M2117.5 1860.5 2117.5 1909.77" stroke="#000000" stroke-width="6.875" stroke-miterlimit="8" fill="none" fill-rule="evenodd"/><path d="M2145.5 1860.5 2145.5 1909.77" stroke="#000000" stroke-width="6.875" stroke-miterlimit="8" fill="none" fill-rule="evenodd"/><path d="M2172.5 1860.5 2172.5 1909.77" stroke="#000000" stroke-width="6.875" stroke-miterlimit="8" fill="none" fill-rule="evenodd"/><path d="M2201.5 1860.5 2201.5 1909.77" stroke="#000000" stroke-width="6.875" stroke-miterlimit="8" fill="none" fill-rule="evenodd"/><path d="M2253.5 1864.5 2253.5 1913.77" stroke="#000000" stroke-width="6.875" stroke-miterlimit="8" fill="none" fill-rule="evenodd"/><path d="M2279.5 1864.5 2279.5 1913.77" stroke="#000000" stroke-width="6.875" stroke-miterlimit="8" fill="none" fill-rule="evenodd"/><path d="M2308.5 1864.5 2308.5 1913.77" stroke="#000000" stroke-width="6.875" stroke-miterlimit="8" fill="none" fill-rule="evenodd"/><path d="M2336.5 1864.5 2336.5 1913.77" stroke="#000000" stroke-width="6.875" stroke-miterlimit="8" fill="none" fill-rule="evenodd"/><path d="M2365.5 1864.5 2365.5 1913.77" stroke="#000000" stroke-width="6.875" stroke-miterlimit="8" fill="none" fill-rule="evenodd"/><path d="M2395.5 1864.5 2395.5 1913.77" stroke="#000000" stroke-width="6.875" stroke-miterlimit="8" fill="none" fill-rule="evenodd"/><path d="M2031.5 1860.5 2031.5 1909.77" stroke="#000000" stroke-width="6.875" stroke-miterlimit="8" fill="none" fill-rule="evenodd"/><path d="M2226.5 1864.5 2226.5 1913.77" stroke="#000000" stroke-width="6.875" stroke-miterlimit="8" fill="none" fill-rule="evenodd"/><path d="M2045.5 1860.5 2045.5 1909.77" stroke="#000000" stroke-width="6.875" stroke-miterlimit="8" fill="none" fill-rule="evenodd"/><path d="M2075.5 1860.5 2075.5 1909.77" stroke="#000000" stroke-width="6.875" stroke-miterlimit="8" fill="none" fill-rule="evenodd"/><path d="M2103.5 1860.5 2103.5 1909.77" stroke="#000000" stroke-width="6.875" stroke-miterlimit="8" fill="none" fill-rule="evenodd"/><path d="M2131.5 1860.5 2131.5 1909.77" stroke="#000000" stroke-width="6.875" stroke-miterlimit="8" fill="none" fill-rule="evenodd"/><path d="M2158.5 1860.5 2158.5 1909.77" stroke="#000000" stroke-width="6.875" stroke-miterlimit="8" fill="none" fill-rule="evenodd"/><path d="M2187.5 1860.5 2187.5 1909.77" stroke="#000000" stroke-width="6.875" stroke-miterlimit="8" fill="none" fill-rule="evenodd"/><path d="M2240.5 1864.5 2240.5 1913.77" stroke="#000000" stroke-width="6.875" stroke-miterlimit="8" fill="none" fill-rule="evenodd"/><path d="M2266.5 1864.5 2266.5 1913.77" stroke="#000000" stroke-width="6.875" stroke-miterlimit="8" fill="none" fill-rule="evenodd"/><path d="M2294.5 1864.5 2294.5 1913.77" stroke="#000000" stroke-width="6.875" stroke-miterlimit="8" fill="none" fill-rule="evenodd"/><path d="M2322.5 1864.5 2322.5 1913.77" stroke="#000000" stroke-width="6.875" stroke-miterlimit="8" fill="none" fill-rule="evenodd"/><path d="M2351.5 1864.5 2351.5 1913.77" stroke="#000000" stroke-width="6.875" stroke-miterlimit="8" fill="none" fill-rule="evenodd"/><path d="M2382.5 1864.5 2382.5 1913.77" stroke="#000000" stroke-width="6.875" stroke-miterlimit="8" fill="none" fill-rule="evenodd"/><path d="M2017.5 1860.5 2017.5 1909.77" stroke="#000000" stroke-width="6.875" stroke-miterlimit="8" fill="none" fill-rule="evenodd"/><path d="M2212.5 1864.5 2212.5 1913.77" stroke="#000000" stroke-width="6.875" stroke-miterlimit="8" fill="none" fill-rule="evenodd"/><path d="M2003.5 1860.5 2003.5 1909.77" stroke="#000000" stroke-width="6.875" stroke-miterlimit="8" fill="none" fill-rule="evenodd"/></g></svg>